# xmcd CD database file
#
# Track frame offsets:
#	150
#	18778
#	35295
#	54132
#	73950
#	99083
#	117102
#	130991
#	145111
#	161416
#	185214
#
# Disc length: 2797 seconds
#
# Revision: 0
# Processed by: cddbd v1.5.2PL0 Copyright (c) Steve Scherf et al.
# Submitted via: CDex 1.70beta2
#
DISCID=8b0aeb0b
DTITLE=Laura Sippola - Toinen
DYEAR=2009
DGENRE=Jazz
TTITLE0=Marttyyri
TTITLE1=M‰ tied‰n
TTITLE2=Kiinnostaa
TTITLE3=HC-mies
TTITLE4=Lauluja syd‰mist‰
TTITLE5=El‰m‰ ja kuolema
TTITLE6=K‰kikello
TTITLE7=Ei oo helppoa kell‰‰n
TTITLE8=Parasta ryhm‰‰
TTITLE9=Toinen
TTITLE10=Rakkautta vain
EXTD=YEAR: 2009
EXTT0=
EXTT1=
EXTT2=
EXTT3=
EXTT4=
EXTT5=
EXTT6=
EXTT7=
EXTT8=
EXTT9=
EXTT10=
PLAYORDER=
